
<svg xmlns="http://www.w3.org/2000/svg" version="1.1" xmlns:xlink="http://www.w3.org/1999/xlink" preserveAspectRatio="none" x="0px" y="0px" width="26px" height="30px" viewBox="0 0 26 30">
<defs>
<g id="Layer1_0_FILL">
<path fill="#00FF00" stroke="none" d="
M 21.95 22.45
Q 25.75 18.75 25.75 13.4 25.75 8.05 21.95 4.35 21.35 3.7 20.7 3.2 17.35 0.55 12.9 0.55 8.45 0.55 5.15 3.2 4.45 3.7 3.85 4.35 0.1 8.05 0.1 13.4 0.1 18.75 3.85 22.45 7.6 26.25 12.9 26.25 18.25 26.25 21.95 22.45
M 14.1 6.15
Q 14.35 6.1 14.65 6.25 18.7 9.05 19.7 13.65 19.75 14 19.7 14.25 19.3 14.75 18.85 14.35 18.75 14.3 18.6 14 17.6 9.8 13.9 7.05 13.75 6.9 13.75 6.65 13.75 6.35 14.1 6.15
M 12.55 9.7
Q 12.4 9.5 12.4 9.3 12.3 8.9 12.7 8.8 13 8.65 13.3 8.8 15.7 10.65 16.9 13.9 17 14.2 16.9 14.45 16.6 14.95 16.3 14.8 16.1 14.75 15.9 14.35 14.8 11.4 12.55 9.7
M 7.7 5.7
Q 7.6 5.55 7.8 5.5
L 8.25 5.35
Q 8.65 5.35 8.95 5.8 9.4 6.45 9.75 7.45 10.3 8.85 10 9.55
L 9.75 10.2
Q 9.6 10.4 9.5 10.2
L 7.7 5.7
M 6.85 5.65
Q 7.1 5.55 7.15 5.75
L 9.1 10.5
Q 9.25 10.7 9.1 10.95
L 8.5 11.8
Q 8.4 12 8.5 12.2 10.05 15.35 12.05 17.15 12.3 17.35 12.65 17.25
L 13.3 17.05
Q 13.45 17 13.75 17.15
L 17.85 20.65
Q 17.95 20.8 17.85 21 16.95 22.15 15.9 22.6 15.35 22.85 14.8 22.55 6 16.7 4.45 7.75 4.35 7.05 4.9 6.65
L 4.9 6.6
Q 5.8 5.95 6.85 5.65
M 14.25 17
Q 14.1 16.95 14.25 16.8
L 14.55 16.75
Q 15.6 16.55 16.25 17.05
L 18.7 19.2
Q 19 19.65 18.35 20.4 18.3 20.5 18.15 20.4
L 14.25 17 Z"/>
</g>
</defs>

<g transform="matrix( 1, 0, 0, 1, 0,0) ">
<use xlink:href="#Layer1_0_FILL"/>
</g>
</svg>
