
<svg xmlns="http://www.w3.org/2000/svg" version="1.1" xmlns:xlink="http://www.w3.org/1999/xlink" preserveAspectRatio="none" x="0px" y="0px" width="201px" height="55px" viewBox="0 0 201 55">
<defs>
<linearGradient id="Gradient_1" gradientUnits="userSpaceOnUse" x1="-30.25" y1="27.85" x2="63.95" y2="27.85" spreadMethod="pad">
<stop  offset="0%" stop-color="#8968FF"/>

<stop  offset="73.33333333333333%" stop-color="#4CB7C4"/>
</linearGradient>

<g id="Layer2_0_FILL">
<path fill="url(#Gradient_1)" stroke="none" d="
M 32.8 12.9
L 23.95 35.8 41.45 35.8 32.8 12.9
M 8.35 47.15
L 26.45 0 0 20.15 8.35 47.15
M 46.2 47.75
L 45.65 46.15 19.75 46.45 17.6 52 37.55 54.65 46.2 47.75
M 71.6 27.5
L 66.05 6.35 39.75 2.9 54.4 41.25 71.6 27.5 Z"/>
</g>

<g id="Layer1_0_FILL">
<path fill="#FFFFFF" stroke="none" d="
M 107 29.75
Q 108.05 28.65 108.05 27.1
L 105.65 27.1
Q 105.65 27.25 105.65 27.45 105.65 27.9 105.3 28.25 104.95 28.6 104.45 28.6 103.95 28.6 103.6 28.25 103.25 27.9 103.25 27.45 103.25 27.25 103.3 27.1
L 100.75 27.1
Q 100.75 28.65 101.85 29.75 102.85 30.9 104.45 30.9 105.95 30.9 107 29.75
M 85.6 26.45
L 81.55 26.45 72.45 49.1 77 49.1 79.25 43.1 88.05 43.1 90.25 49.1 94.85 49.1 85.6 26.45
M 83.65 31.4
L 86.6 39.35 80.65 39.35 83.65 31.4
M 100.9 33
L 97 33 97 49 101 49 108.15 38.4 108.15 49 112 49 112 33 107.75 33 100.9 43.3 100.9 33
M 129.45 35.05
Q 127.1 32.55 123.4 32.55 119.75 32.6 117.25 35.05 114.85 37.55 114.85 41.1 114.85 44.6 117.25 47.05 119.75 49.55 123.3 49.55 126.85 49.55 129.2 47.05 130.15 46.15 130.7 45.15
L 127.15 43.3
Q 126.9 43.75 126.45 44.1 125.25 45.55 123.35 45.6 121.5 45.65 120.2 44.25 118.9 42.85 118.9 40.95 118.9 39.1 120.15 37.8 121.5 36.4 123.35 36.4 125.15 36.35 126.35 37.75 126.7 38.15 126.9 38.55
L 130.55 36.5
Q 130.1 35.75 129.45 35.05
M 135.65 29.55
Q 134.55 30.7 133.9 32.1 132.05 37.05 132.75 40.95 133.2 46.95 138.05 48.9 139.55 49.6 141.5 49.55 144.9 49.45 147.1 47.25 149.3 45 149.35 41.6 149.35 40.75 149.25 39.95 148.85 37.55 147.25 35.85 145.1 33.5 141.7 33.55 138.4 33.55 135.95 36.4
L 136.35 34.9
Q 137 32.05 140 30.95 140.95 30.45 143.45 30.25 144 30.2 144.55 30.05 144.6 30.05 144.7 30 146.8 29.45 148.15 28.1
L 145.85 25.5
Q 144.85 26.35 143.45 26.6 141.35 26.95 140.6 27.15
L 140.55 27.2 140.25 27.2
Q 137.85 27.65 135.65 29.55
M 136.85 41.65
Q 136.85 39.75 138.05 38.35 139.4 37.1 141.3 37.1 143.2 37.1 144.4 38.4 145.65 39.7 145.6 41.6 145.55 42.7 145.15 43.6 144.85 44.25 144.4 44.7 143.15 45.9 141.25 45.95 139.35 45.95 138.1 44.75 137.25 44 136.95 42.85 136.85 42.3 136.85 41.65
M 201.7 36.75
L 201.7 33.1 190.9 33.1 190.9 49 194.85 49 194.85 36.75 201.7 36.75
M 167.25 45.35
L 164 43.75
Q 163.85 44 163 45 162.05 45.95 159.95 45.95 157.85 45.95 156.75 44.7 155.7 43.5 155.5 42.05
L 167.85 42.05
Q 168 40.3 167.85 39.25 167.15 35.15 163.75 33.35 162.15 32.55 160.25 32.55 156.7 32.55 154.15 34.95 151.75 37.45 151.75 41 151.75 44.6 154.15 47.05 156.7 49.55 160.25 49.55 163.75 49.55 166.15 47.05 166.85 46.3 167.25 45.35
M 163.05 36.75
Q 164 37.8 164.1 38.85
L 155.6 38.85
Q 156 37.95 156.55 37.15 158 35.65 160.05 35.65 162.15 35.65 163.05 36.75
M 177.55 33.1
Q 176.15 33.75 175.1 35.1 175.0015625 35.14921875 175 35.2
L 175 33.1 170.85 33.1 170.85 55.65 175 55.65 175 47.1
Q 177.05 49.55 180.3 49.55 183.6 49.55 185.8 47.05 186.6 46.2 187.1 45.2 187.95 43.5 187.95 41.2 187.95 38.9 187.1 37.1 186.6 36.05 185.8 35.1 184.55 33.75 183.05 33.1 181.75 32.55 180.3 32.55 178.8 32.55 177.55 33.1
M 174.75 41
Q 174.75 40.25 175 39.55 175.35 38.5 176.1 37.7 177.5 36.4 179.4 36.4 181.35 36.4 182.55 37.75 183.75 39.1 183.75 41 183.75 42.95 182.7 44.25 181.35 45.65 179.4 45.65 177.5 45.65 176.1 44.25 175.35 43.55 175 42.55 174.75 41.85 174.75 41 Z"/>
</g>
</defs>

<g transform="matrix( 1, 0, 0, 1, 0,0) ">
<use xlink:href="#Layer2_0_FILL"/>
</g>

<g transform="matrix( 1, 0, 0, 1, 0,0) ">
<use xlink:href="#Layer1_0_FILL"/>
</g>
</svg>
