
<svg xmlns="http://www.w3.org/2000/svg" version="1.1" xmlns:xlink="http://www.w3.org/1999/xlink" preserveAspectRatio="none" x="0px" y="0px" width="224px" height="50px" viewBox="0 0 224 50">
<defs>
<g id="Layer4_0_FILL">
<path fill="#9466FF" stroke="none" d="
M 0 0
L 0 2 22 2 22 0 0 0 Z"/>
</g>

<g id="Layer4_1_FILL">
<path fill="#9466FF" stroke="none" d="
M 48 2
L 48 0 26 0 26 2 48 2 Z"/>
</g>

<g id="Layer4_2_FILL">
<path fill="#9466FF" stroke="none" d="
M 52 0
L 52 2 74 2 74 0 52 0 Z"/>
</g>

<g id="Layer4_3_FILL">
<path fill="#9466FF" stroke="none" d="
M 144 0
L 144 2 158 2 158 0 144 0 Z"/>
</g>

<g id="Layer4_4_FILL">
<path fill="#9466FF" stroke="none" d="
M 162 0
L 162 2 174 2 174 0 162 0 Z"/>
</g>

<g id="Layer4_5_FILL">
<path fill="#9466FF" stroke="none" d="
M 178 0
L 178 2 188 2 188 0 178 0 Z"/>
</g>

<g id="Layer4_6_FILL">
<path fill="#9466FF" stroke="none" d="
M 192 0
L 192 2 200 2 200 0 192 0 Z"/>
</g>

<g id="Layer4_7_FILL">
<path fill="#9466FF" stroke="none" d="
M 204 0
L 204 2 210 2 210 0 204 0 Z"/>
</g>

<g id="Layer4_8_FILL">
<path fill="#9466FF" stroke="none" d="
M 214 0
L 214 2 218 2 218 0 214 0 Z"/>
</g>

<g id="Layer4_9_FILL">
<path fill="#9466FF" stroke="none" d="
M 222 0
L 222 2 224 2 224 0 222 0 Z"/>
</g>

<g id="Layer2_0_FILL">
<path fill="#9566FF" stroke="none" d="
M 263.4 125.35
L 249.4 88.05 234.95 125.35 263.4 125.35
M 228.2 142.7
L 224.6 151.75 257.1 155.95 271.2 144.7 270.3 142.15 228.2 142.7
M 196 99.85
L 209.6 143.85 239 67.05 196 99.85
M 303.55 77.35
L 260.7 71.75 284.55 134.25 312.55 111.85 303.55 77.35 Z"/>
</g>

<g id="Layer0_0_FILL">
<path fill="#9566FF" stroke="none" d="
M 95.75 7.3
L 97.5 12.9 101.25 3.1 95.75 7.3
M 104.35 10.55
L 102.6 5.8 100.75 10.55 104.35 10.55
M 105.35 13
L 105.25 12.65 99.9 12.75 99.4 13.9 103.55 14.45 105.35 13
M 109.45 4.4
L 104 3.7 107.05 11.65 110.6 8.8 109.45 4.4 Z"/>
</g>

<path id="Layer3_0_1_STROKES" stroke="#9566FF" stroke-width="8" stroke-linejoin="round" stroke-linecap="round" fill="none" d="
M 444.6 90.55
L 444.6 150.05 520.15 150.05 496.15 90.55 444.6 90.55 429.225 90.55
Q 415.2830078125 92.4826171875 414.55 103.85
L 414.55 150.05 444.6 150.05 444.6 206.225
Q 452.1306640625 208.550390625 458.2 214.4
L 520.15 214.4 520.15 150.05
M 152.55 50
L 152.55 106.05 219.55 167.55 255.55 181.55 330.6 181.55 349.25 134.55 357.6 113.55 301.6 63.5 266.6 49 83.05 49 83.05 76.5 119.55 99.05 119.55 141.05 135.55 152.05 83.05 198.05 83.05 218.55
M 330.6 181.55
L 393.6 181.55 393.6 167.55 370.1 156.55 370.1 134.55 349.25 134.55
M 465.65 172.55
L 482.15 172.55
M 458.2 214.4
Q 458.446875 214.646875 458.7 214.9 468.95 225.15 468.95 239.55 468.95 244.638671875 467.675 249.2
L 504.675 249.2 520.15 229.7 520.15 214.4
M 414.55 150.05
L 414.55 210.6
Q 423.0998046875 204.7 434.05 204.7 439.6435546875 204.7 444.6 206.225
M 467.675 249.2
Q 465.3404296875 257.5919921875 458.7 264.2 448.5 274.45 434.05 274.45 419.65 274.45 409.4 264.2 399.2 254 399.2 239.55 399.2 225.15 409.4 214.9 411.85546875 212.4564453125 414.55 210.6
M 449.95 239.6
Q 449.95 246.25 445.25 250.9 440.6 255.6 433.95 255.6 427.35 255.6 422.65 250.9 418 246.25 418 239.6 418 233 422.65 228.3 427.35 223.6 433.95 223.6 440.6 223.6 445.25 228.3 449.95 233 449.95 239.6 Z
M 319.6 204.55
L 366.6 204.55
Q 377.6 204.55 377.6 215.55
L 377.6 237.55
Q 377.6 248.55 366.6 248.55
L 319.6 248.55
Q 308.6 248.55 308.6 237.55
L 308.6 215.55
Q 308.6 204.55 319.6 204.55 Z
M 83.55 218.55
L 142.55 182.05 188.05 182.05 188.05 168.05 152.55 136.55 152.55 106.05
M 194.75 239.55
Q 194.75 254 184.5 264.2 174.3 274.45 159.85 274.45 145.45 274.45 135.2 264.2 125 254 125 239.55 125 225.15 135.2 214.9 145.45 204.7 159.85 204.7 174.3 204.7 184.5 214.9 194.75 225.15 194.75 239.55 Z
M 175.75 239.6
Q 175.75 246.25 171.05 250.9 166.4 255.6 159.75 255.6 153.15 255.6 148.45 250.9 143.8 246.25 143.8 239.6 143.8 233 148.45 228.3 153.15 223.6 159.75 223.6 166.4 223.6 171.05 228.3 175.75 233 175.75 239.6 Z
M 268.5 239.6
Q 268.5 246.25 263.8 250.9 259.15 255.6 252.5 255.6 245.9 255.6 241.2 250.9 236.55 246.25 236.55 239.6 236.55 233 241.2 228.3 245.9 223.6 252.5 223.6 259.15 223.6 263.8 228.3 268.5 233 268.5 239.6 Z
M 287.5 239.55
Q 287.5 254 277.25 264.2 267.05 274.45 252.6 274.45 238.2 274.45 227.95 264.2 217.75 254 217.75 239.55 217.75 225.15 227.95 214.9 238.2 204.7 252.6 204.7 267.05 204.7 277.25 214.9 287.5 225.15 287.5 239.55 Z"/>

<path id="Layer1_0_1_STROKES" stroke="#9566FF" stroke-width="1" stroke-linejoin="round" stroke-linecap="round" fill="none" d="
M 134 6.1
L 137.05 13.7 137.05 21.85 137.05 23.8 135.1 26.3 130.35 26.3
Q 130.05 27.4 129.25 28.2 127.9 29.5 126.1 29.5 124.25 29.5 122.95 28.2 121.65 26.9 121.65 25.1 121.65 23.25 122.95 21.95 123.25 21.65 123.6 21.4
L 123.6 13.7 123.6 7.8
Q 123.7 6.35 125.5 6.1
L 127.45 6.1 134 6.1 Z
M 128.1 25.1
Q 128.1 25.95 127.5 26.5 126.9 27.1 126.05 27.1 125.25 27.1 124.65 26.5 124.05 25.95 124.05 25.1 124.05 24.25 124.65 23.65 125.25 23.05 126.05 23.05 126.9 23.05 127.5 23.65 128.1 24.25 128.1 25.1 Z
M 123.6 21.4
Q 124.7 20.65 126.1 20.65 126.8 20.65 127.45 20.85
L 127.45 13.7 123.6 13.7
M 137.05 21.85
L 129.15 21.85
Q 129.2 21.9 129.25 21.95 130.55 23.25 130.55 25.1 130.55 25.75 130.35 26.3
M 127.45 20.85
Q 128.4 21.1 129.15 21.85
M 130.1 16.55
L 132.2 16.55
M 127.45 6.1
L 127.45 13.7 137.05 13.7
M 115.3 11.7
L 116.35 9.05 109.2 2.65 104.75 0.8 90.25 0.8 90.25 8.1 98.75 15.9 103.35 17.7 112.9 17.7 115.3 11.7 117.95 11.7 117.95 14.5 120.95 15.9 120.95 17.7 112.9 17.7
M 105 25.1
Q 105 25.95 104.4 26.5 103.85 27.1 102.95 27.1 102.15 27.1 101.55 26.5 100.95 25.95 100.95 25.1 100.95 24.25 101.55 23.65 102.15 23.05 102.95 23.05 103.85 23.05 104.4 23.65 105 24.25 105 25.1 Z
M 107.45 25.1
Q 107.45 26.9 106.1 28.2 104.85 29.5 103 29.5 101.15 29.5 99.85 28.2 98.55 26.9 98.55 25.1 98.55 23.25 99.85 21.95 101.15 20.65 103 20.65 104.85 20.65 106.1 21.95 107.45 23.25 107.45 25.1 Z
M 111.5 20.6
L 117.5 20.6
Q 118.9 20.6 118.9 22.05
L 118.9 24.85
Q 118.9 26.2 117.5 26.2
L 111.5 26.2
Q 110.1 26.2 110.1 24.85
L 110.1 22.05
Q 110.1 20.6 111.5 20.6 Z
M 90.25 0.8
L 81.4 0.8 81.4 4.3 86.05 7.2 86.05 12.55 88.1 13.95 81.4 19.8 81.45 22.4 88.95 17.75 94.75 17.75 94.75 15.95 90.25 11.95 90.25 8.1
M 93.2 25.1
Q 93.2 25.95 92.6 26.5 92 27.1 91.15 27.1 90.3 27.1 89.7 26.5 89.15 25.95 89.15 25.1 89.15 24.25 89.7 23.65 90.3 23.05 91.15 23.05 92 23.05 92.6 23.65 93.2 24.25 93.2 25.1 Z
M 95.6 25.1
Q 95.6 26.9 94.3 28.2 93 29.5 91.15 29.5 89.35 29.5 88.05 28.2 86.75 26.9 86.75 25.1 86.75 23.25 88.05 21.95 89.35 20.65 91.15 20.65 93 20.65 94.3 21.95 95.6 23.25 95.6 25.1 Z"/>

<path id="Layer0_0_1_STROKES" stroke="#9566FF" stroke-width="1" stroke-linejoin="round" stroke-linecap="round" fill="none" d="
M 104 3.7
L 107.05 11.65 110.6 8.8 109.45 4.4 104 3.7 Z
M 105.25 12.65
L 105.35 13 103.55 14.45 99.4 13.9 99.9 12.75 105.25 12.65 Z
M 102.6 5.8
L 104.35 10.55 100.75 10.55 102.6 5.8 Z
M 101.25 3.1
L 97.5 12.9 95.75 7.3 101.25 3.1 Z"/>
</defs>

<g transform="matrix( 1, 0, 0, 1, 0,28.25) ">
<use xlink:href="#Layer4_0_FILL"/>
</g>

<g transform="matrix( 1, 0, 0, 1, 0,28.25) ">
<use xlink:href="#Layer4_1_FILL"/>
</g>

<g transform="matrix( 1, 0, 0, 1, 0,28.25) ">
<use xlink:href="#Layer4_2_FILL"/>
</g>

<g transform="matrix( 1, 0, 0, 1, 0,28.25) ">
<use xlink:href="#Layer4_3_FILL"/>
</g>

<g transform="matrix( 1, 0, 0, 1, 0,28.25) ">
<use xlink:href="#Layer4_4_FILL"/>
</g>

<g transform="matrix( 1, 0, 0, 1, 0,28.25) ">
<use xlink:href="#Layer4_5_FILL"/>
</g>

<g transform="matrix( 1, 0, 0, 1, 0,28.25) ">
<use xlink:href="#Layer4_6_FILL"/>
</g>

<g transform="matrix( 1, 0, 0, 1, 0,28.25) ">
<use xlink:href="#Layer4_7_FILL"/>
</g>

<g transform="matrix( 1, 0, 0, 1, 0,28.25) ">
<use xlink:href="#Layer4_8_FILL"/>
</g>

<g transform="matrix( 1, 0, 0, 1, 0,28.25) ">
<use xlink:href="#Layer4_9_FILL"/>
</g>

<g transform="matrix( 1, 0, 0, 1, 3.7,66.8) ">
<use xlink:href="#Layer3_0_1_STROKES"/>
</g>

<g transform="matrix( 1, 0, 0, 1, 3.7,66.8) ">
<use xlink:href="#Layer2_0_FILL"/>
</g>

<g transform="matrix( 1, 0, 0, 1, 0,0) ">
<use xlink:href="#Layer1_0_1_STROKES"/>
</g>

<g transform="matrix( 1, 0, 0, 1, 0,0) ">
<use xlink:href="#Layer0_0_FILL"/>

<use xlink:href="#Layer0_0_1_STROKES"/>
</g>
</svg>
